<svg xmlns="http://www.w3.org/2000/svg" width="24" height="24" viewBox="0 0 24 24" fill="none">
  <path d="M10.17 19C10.3194 19.0005 10.467 18.9675 10.602 18.9035C10.737 18.8395 10.8559 18.746 10.95 18.63L15.78 12.63C15.9271 12.4511 16.0075 12.2266 16.0075 11.995C16.0075 11.7634 15.9271 11.5389 15.78 11.36L10.78 5.36C10.6103 5.15578 10.3664 5.02736 10.1019 5.00298C9.83752 4.9786 9.57424 5.06026 9.37002 5.23C9.1658 5.39974 9.03738 5.64365 9.013 5.90808C8.98862 6.1725 9.07028 6.43578 9.24002 6.64L13.71 12L9.39002 17.36C9.26774 17.5068 9.19006 17.6855 9.16618 17.8751C9.1423 18.0646 9.17322 18.257 9.25527 18.4296C9.33733 18.6021 9.46709 18.7475 9.6292 18.8486C9.79131 18.9497 9.97898 19.0022 10.17 19Z" fill="black"/>
</svg>